<svg xmlns="http://www.w3.org/2000/svg"  viewBox="0 0 100 100" width="800px" height="800px"><path fill="#fff" d="M21.25,55.6c-0.497,0-0.9,0.403-0.9,0.9s0.403,0.9,0.9,0.9c0.497,0,0.9-0.403,0.9-0.9 S21.747,55.6,21.25,55.6z M80.35,30.9c-0.387,0-0.7,0.313-0.7,0.7c0,0.387,0.313,0.7,0.7,0.7c0,0,0.001,0,0.001,0 c0.387,0,0.7-0.313,0.7-0.7C81.051,31.214,80.738,30.9,80.35,30.9C80.351,30.9,80.35,30.9,80.35,30.9z"/><path fill="#f0bb1a" d="M77.65,11.7c-0.497,0-0.9,0.403-0.9,0.9s0.403,0.9,0.9,0.9s0.9-0.403,0.9-0.9 S78.147,11.7,77.65,11.7L77.65,11.7z M21.75,63.3c-0.497,0-0.9,0.402-0.901,0.899s0.402,0.9,0.899,0.901 c0.001,0,0.001,0,0.002,0c0.497,0,0.9-0.402,0.901-0.899s-0.402-0.9-0.899-0.901C21.751,63.3,21.751,63.3,21.75,63.3z"/><path fill="#c7ede6" d="M50.55,12.4c-20.655-0.008-37.407,16.729-37.415,37.385S29.864,87.192,50.52,87.2 c0.01,0,0.02,0,0.03,0c20.655,0.008,37.407-16.729,37.415-37.385S71.236,12.408,50.58,12.4C50.57,12.4,50.56,12.4,50.55,12.4z"/><path fill="#f0bb1a" d="M83.15,10.7c-2.209,0-4,1.791-4,4s1.791,4,4,4s4-1.791,4-4S85.359,10.7,83.15,10.7z"/><path fill="#79c7cf" d="M87.15,21.9c-1.049,0-1.9,0.851-1.9,1.9c0,1.049,0.851,1.9,1.9,1.9s1.9-0.851,1.9-1.9 C89.05,22.751,88.199,21.9,87.15,21.9L87.15,21.9z"/><path fill="#facc5a" d="M78.15,74.3c-1.049-0.002-1.901,0.848-1.903,1.897s0.848,1.901,1.897,1.903 c0.002,0,0.004,0,0.006,0c1.049,0.002,1.901-0.848,1.903-1.897s-0.848-1.901-1.897-1.903C78.154,74.3,78.152,74.3,78.15,74.3z M14.95,59.3c-2.209,0-4,1.791-4,4c0,2.209,1.791,4,4,4s4-1.791,4-4C18.95,61.091,17.159,59.3,14.95,59.3z"/><path fill="#79c7cf" d="M25.25,85.5c-1.049,0-1.9,0.851-1.9,1.9s0.851,1.9,1.9,1.9c1.049,0,1.9-0.851,1.9-1.9 S26.299,85.5,25.25,85.5z"/><path fill="#fff" d="M76.85,28.3c-0.994,0-1.8,0.806-1.8,1.8c0,0.994,0.806,1.8,1.8,1.8s1.8-0.806,1.8-1.8 C78.65,29.106,77.844,28.3,76.85,28.3z M18.75,48.7c-1.381,0-2.5,1.119-2.5,2.5s1.119,2.5,2.5,2.5c1.381,0,2.5-1.119,2.5-2.5 S20.131,48.7,18.75,48.7z"/><g><path fill="#ee3e54" d="M74,47h-7.886v23H34.571V47H28c0-0.243,23-23,23-23L74,47z"/></g><g><path fill="#472b29" d="M66.814,70.7H33.871v-23H27.3V47c0-0.4,0-0.535,23.208-23.498l0.495-0.49L75.69,47.7h-8.875V70.7z M35.271,69.3h30.143v-23h6.896L50.998,24.987c-7.551,7.474-18.046,17.9-21.382,21.313h5.656V69.3z"/></g><g><path fill="#fff" d="M63.486,41.579c0,2.451-1.84,4.436-4.107,4.436s-4.107-1.985-4.107-4.436 c0-0.414,0.053-0.808,0.151-1.183c-3.167,1.774-4.85,5.08-5.737,8.234v14.799c0,1.091,0.881,1.971,1.971,1.971h1.314v1.314h-13.8 V65.4h1.314c1.091,0,1.971-0.881,1.971-1.971V41.086c0-0.723-0.591-1.314-1.314-1.314h-1.314v-1.314h8.543 c0.723,0,1.314,0.591,1.314,1.314v3.759c1.406-2.431,3.476-4.554,6.519-5.658c0.296-0.138,1.63-0.729,3.01-0.729v0.013 c0.053-0.013,0.112-0.013,0.164-0.013C61.646,37.143,63.486,39.127,63.486,41.579z"/></g><g><path fill="#472b29" d="M53.221,66.964h-14.3V65.15h1.564c0.949,0,1.721-0.772,1.721-1.722V41.086 c0-0.587-0.477-1.064-1.064-1.064h-1.564v-1.814h8.793c0.862,0,1.564,0.702,1.564,1.564v2.876 c1.581-2.411,3.657-4.094,6.184-5.011c0.359-0.168,1.705-0.744,3.095-0.744l0.25,0.001c2.363,0.049,4.271,2.132,4.271,4.685 c0,2.583-1.955,4.686-4.357,4.686c-2.402,0-4.357-2.102-4.357-4.686c0-0.229,0.016-0.456,0.046-0.679 c-2.38,1.524-4.104,4.132-5.132,7.765v14.764c0,0.949,0.772,1.722,1.722,1.722h1.564V66.964z M39.421,66.464h13.3V65.65h-1.064 c-1.225,0-2.222-0.997-2.222-2.222l0.009-14.867c1.131-4.021,3.101-6.842,5.855-8.385l0.513-0.287l-0.149,0.569 c-0.095,0.361-0.143,0.738-0.143,1.12c0,2.308,1.73,4.186,3.857,4.186s3.857-1.877,3.857-4.186s-1.73-4.186-3.857-4.186 c-0.037,0-0.082,0-0.105,0.006l-0.309,0.074v-0.074c-1.197,0.062-2.322,0.544-2.654,0.699c-2.69,0.977-4.839,2.844-6.408,5.557 l-0.466,0.807v-4.69c0-0.587-0.477-1.064-1.064-1.064h-8.293v0.814h1.064c0.862,0,1.564,0.702,1.564,1.564v22.343 c0,1.225-0.997,2.222-2.221,2.222h-1.064V66.464z"/></g></svg>